<?xml version="1.0" standalone="no"?>
<!DOCTYPE svg PUBLIC "-//W3C//DTD SVG 20010904//EN"
 "http://www.w3.org/TR/2001/REC-SVG-20010904/DTD/svg10.dtd">
<svg version="1.0" xmlns="http://www.w3.org/2000/svg"
 width="700.000000pt" height="700.000000pt" viewBox="0 0 700.000000 700.000000"
 preserveAspectRatio="xMidYMid meet">
<metadata>
Created by potrace 1.14, written by Peter Selinger 2001-2017
</metadata>
<g transform="translate(0.000000,700.000000) scale(0.100000,-0.100000)"
fill="#000000" stroke="none">
<path d="M1115 6989 c-204 -17 -342 -48 -458 -104 -306 -146 -549 -443 -611
-745 -42 -205 -41 -163 -41 -2630 0 -2535 -1 -2484 50 -2686 94 -370 442 -705
810 -778 44 -9 112 -22 150 -28 100 -16 4631 -24 4839 -8 347 26 500 80 719
252 159 125 304 332 357 508 28 96 48 219 60 364 14 176 14 4556 0 4732 -17
218 -48 358 -106 479 -118 249 -346 464 -596 564 -71 29 -158 49 -303 73 -84
13 -4711 20 -4870 7z m1709 -689 c205 -44 348 -120 471 -251 85 -91 128 -162
166 -271 37 -108 49 -188 49 -323 0 -262 -87 -463 -228 -528 -37 -18 -66 -22
-137 -22 -81 0 -96 3 -145 30 -106 58 -120 124 -80 370 31 187 19 280 -51 381
-38 56 -102 98 -194 127 -99 31 -339 31 -466 -1 -492 -122 -832 -555 -935
-1188 -24 -148 -30 -513 -11 -639 86 -557 466 -857 1087 -857 166 0 238 9 393
47 103 26 257 82 257 93 0 4 14 122 30 262 16 140 30 258 30 263 0 4 -108 7
-240 7 -253 0 -319 8 -372 44 -75 50 -108 183 -73 302 20 71 78 133 142 152
53 16 909 17 966 1 50 -14 113 -71 128 -116 18 -56 7 -174 -61 -638 -33 -231
-59 -425 -58 -432 2 -7 35 11 78 43 355 262 590 421 634 429 48 10 86 -12 116
-65 21 -38 25 -58 24 -125 0 -94 -15 -144 -57 -191 -16 -19 -134 -105 -261
-191 -213 -145 -617 -422 -624 -428 -1 -1 -20 -86 -42 -188 -144 -682 -338
-1198 -555 -1475 -169 -216 -409 -317 -646 -272 -121 23 -257 116 -316 218
-81 138 -86 373 -13 587 106 309 423 674 951 1096 132 106 149 125 149 178 0
18 -4 22 -17 16 -10 -4 -67 -25 -128 -46 -164 -56 -302 -80 -492 -86 -512 -17
-952 138 -1255 440 -331 331 -464 753 -418 1333 34 424 158 811 361 1124 294
451 762 745 1289 810 129 15 440 4 554 -20z m2962 -4291 c94 -28 190 -87 263
-159 74 -75 121 -151 157 -255 23 -68 27 -97 27 -190 1 -124 -14 -188 -68
-294 -92 -180 -265 -305 -468 -339 -88 -14 -106 -14 -194 0 -203 34 -376 159
-468 339 -54 105 -69 170 -69 294 0 96 4 121 30 195 79 226 268 388 497 430
75 13 213 4 293 -21z"/>
<path d="M2632 1973 c-201 -200 -281 -302 -353 -448 -59 -121 -79 -196 -79
-292 0 -121 36 -174 119 -175 155 -2 322 310 452 842 63 259 61 250 50 250 -6
0 -91 -80 -189 -177z"/>
</g>
</svg>
