<svg version="1.0" xmlns="http://www.w3.org/2000/svg" width="933.333" height="933.333" viewBox="0 0 700 700"><path d="M111.5 1.1C91.1 2.8 77.3 5.9 65.7 11.5 35.1 26.1 10.8 55.8 4.6 86 .4 106.5.5 102.3.5 349c0 253.5-.1 248.4 5 268.6 9.4 37 44.2 70.5 81 77.8 4.4.9 11.2 2.2 15 2.8 10 1.6 463.1 2.4 483.9.8 34.7-2.6 50-8 71.9-25.2 15.9-12.5 30.4-33.2 35.7-50.8 2.8-9.6 4.8-21.9 6-36.4 1.4-17.6 1.4-455.6 0-473.2-1.7-21.8-4.8-35.8-10.6-47.9-11.8-24.9-34.6-46.4-59.6-56.4-7.1-2.9-15.8-4.9-30.3-7.3-8.4-1.3-471.1-2-487-.7zM282.4 70c20.5 4.4 34.8 12 47.1 25.1 8.5 9.1 12.8 16.2 16.6 27.1 3.7 10.8 4.9 18.8 4.9 32.3 0 26.2-8.7 46.3-22.8 52.8-3.7 1.8-6.6 2.2-13.7 2.2-8.1 0-9.6-.3-14.5-3-10.6-5.8-12-12.4-8-37 3.1-18.7 1.9-28-5.1-38.1-3.8-5.6-10.2-9.8-19.4-12.7-9.9-3.1-33.9-3.1-46.6.1-49.2 12.2-83.2 55.5-93.5 118.8-2.4 14.8-3 51.3-1.1 63.9 8.6 55.7 46.6 85.7 108.7 85.7 16.6 0 23.8-.9 39.3-4.7 10.3-2.6 25.7-8.2 25.7-9.3 0-.4 1.4-12.2 3-26.2s3-25.8 3-26.3c0-.4-10.8-.7-24-.7-25.3 0-31.9-.8-37.2-4.4-7.5-5-10.8-18.3-7.3-30.2 2-7.1 7.8-13.3 14.2-15.2 5.3-1.6 90.9-1.7 96.6-.1 5 1.4 11.3 7.1 12.8 11.6 1.8 5.6.7 17.4-6.1 63.8-3.3 23.1-5.9 42.5-5.8 43.2.2.7 3.5-1.1 7.8-4.3 35.5-26.2 59-42.1 63.4-42.9 4.8-1 8.6 1.2 11.6 6.5 2.1 3.8 2.5 5.8 2.4 12.5 0 9.4-1.5 14.4-5.7 19.1-1.6 1.9-13.4 10.5-26.1 19.1-21.3 14.5-61.7 42.2-62.4 42.8-.1.1-2 8.6-4.2 18.8-14.4 68.2-33.8 119.8-55.5 147.5-16.9 21.6-40.9 31.7-64.6 27.2-12.1-2.3-25.7-11.6-31.6-21.8-8.1-13.8-8.6-37.3-1.3-58.7 10.6-30.9 42.3-67.4 95.1-109.6 13.2-10.6 14.9-12.5 14.9-17.8 0-1.8-.4-2.2-1.7-1.6-1 .4-6.7 2.5-12.8 4.6-16.4 5.6-30.2 8-49.2 8.6-51.2 1.7-95.2-13.8-125.5-44-33.1-33.1-46.4-75.3-41.8-133.3C65.4 219 77.8 180.3 98.1 149c29.4-45.1 76.2-74.5 128.9-81 12.9-1.5 44-.4 55.4 2zm296.2 429.1c9.4 2.8 19 8.7 26.3 15.9 7.4 7.5 12.1 15.1 15.7 25.5 2.3 6.8 2.7 9.7 2.7 19 .1 12.4-1.4 18.8-6.8 29.4-9.2 18-26.5 30.5-46.8 33.9-8.8 1.4-10.6 1.4-19.4 0-20.3-3.4-37.6-15.9-46.8-33.9-5.4-10.5-6.9-17-6.9-29.4 0-9.6.4-12.1 3-19.5 7.9-22.6 26.8-38.8 49.7-43 7.5-1.3 21.3-.4 29.3 2.1z"/><path d="M263.2 502.7c-20.1 20-28.1 30.2-35.3 44.8-5.9 12.1-7.9 19.6-7.9 29.2 0 12.1 3.6 17.4 11.9 17.5 15.5.2 32.2-31 45.2-84.2 6.3-25.9 6.1-25 5-25-.6 0-9.1 8-18.9 17.7z"/></svg>